<svg id="Vector" xmlns="http://www.w3.org/2000/svg" viewBox="0 0 1047.37 200.24"><defs><style>.cls-1,.cls-3{fill:#f0f1f2;}.cls-2{fill:#fff;}.cls-2,.cls-3,.cls-4,.cls-5{stroke:#4d4e53;stroke-linecap:round;stroke-linejoin:round;}.cls-4{fill:none;}.cls-5{fill:#da291c;}</style></defs><title>ExtraSpace-Top</title><polygon class="cls-1" points="272.78 148.49 245.76 148.49 245.76 133.15 240.81 128.79 240.81 60.21 234.08 54.97 234.08 31 272.78 31 272.78 50.66 295.12 50.66 295.12 78.93 282.78 78.93 272.78 89.7 272.78 148.49"/><polygon class="cls-1" points="330.8 53.91 330.8 79.02 342.25 79.02 352.01 89.63 352.01 97.44 396.11 97.44 396.11 53.91 330.8 53.91"/><polyline class="cls-2" points="266.89 50.66 266.89 39.87 260.28 39.87 260.28 50.66 266.89 50.66"/><polyline class="cls-2" points="266.89 67.26 266.89 56.47 260.28 56.47 260.28 67.26 266.89 67.26"/><polyline class="cls-2" points="279.4 67.26 279.4 56.47 272.78 56.47 272.78 67.26 279.4 67.26"/><rect class="cls-2" x="133.31" y="39.87" width="6.62" height="10.79"/><rect class="cls-2" x="133.31" y="56.46" width="6.62" height="10.79"/><rect class="cls-2" x="145.02" y="39.87" width="6.62" height="10.79"/><path class="cls-3" d="M128,34.74V79.25h20.42V120h14.86v28.57h10V34.74Zm12,32.51h-6.62V56.46h6.62Zm0-16.59h-6.62V39.87h6.62Zm11.71,0H145V39.87h6.62Z"/><polyline class="cls-4" points="167.08 34.75 167.08 28.12 133.97 28.12 133.97 30.93"/><polyline class="cls-4" points="344.97 89.7 272.78 89.7 272.78 148.56"/><line class="cls-4" x1="352.39" y1="97.09" x2="352.39" y2="89.7"/><polyline class="cls-4" points="352.39 89.7 342.39 78.93 330.71 78.93"/><polyline class="cls-4" points="285.69 46.28 285.69 22.7 330.71 22.7 330.71 78.93 282.78 78.93 272.78 89.7 342.06 89.7"/><rect class="cls-5" x="325.15" y="141.22" width="10.98" height="7.34"/><rect class="cls-5" x="363.05" y="141.22" width="12.44" height="7.34"/><rect class="cls-5" x="397.04" y="141.22" width="8.33" height="7.34"/><rect class="cls-5" x="426.91" y="141.22" width="12.57" height="7.34"/><polygon class="cls-3" points="439.48 111.65 439.48 141.22 426.91 141.22 426.91 124.02 405.37 124.02 405.37 141.22 397.04 141.22 397.04 124.02 375.49 124.02 375.49 141.22 363.05 141.22 363.05 132.49 355.02 132.49 355.02 132.48 363.05 132.48 363.05 128.04 357.46 125.09 341.71 125.09 336.12 128.04 336.12 132.48 343.99 132.48 343.99 132.49 336.13 132.49 336.13 141.22 325.15 141.22 325.15 111.65 439.48 111.65"/><polygon class="cls-2" points="363.05 128.04 363.05 132.48 355.02 132.48 355.02 132.49 343.99 132.49 343.99 132.48 336.12 132.48 336.12 128.04 341.71 125.09 357.46 125.09 363.05 128.04"/><line class="cls-4" x1="343.99" y1="148.56" x2="343.99" y2="132.49"/><line class="cls-4" x1="355.02" y1="148.56" x2="355.02" y2="132.49"/><polyline class="cls-2" points="127.99 148.56 107.61 148.56 107.61 79.25 148.37 79.25 148.37 119.99"/><path class="cls-2" d="M235.29,133.2c0-3.8-4-14.82-6.76-14.85-3.38,0-7,10.94-7,14.74a6.88,6.88,0,1,0,13.76.11Z"/><polyline class="cls-4" points="228.27 148.46 228.35 140.03 228.44 129.9"/><line class="cls-4" x1="228.38" y1="136.5" x2="225.03" y2="133.12"/><polygon class="cls-3" points="393.11 137.95 379.4 137.95 379.4 132.94 393.11 132.94 393.11 136.29 393.11 137.95"/><polygon class="cls-3" points="410.08 132.94 422.99 132.94 422.99 137.95 409.28 137.95 409.28 132.94 410.08 132.94"/><polyline class="cls-2" points="302.27 109.3 302.27 98.51 295.65 98.51 295.65 109.3 299.38 109.3"/><polyline class="cls-2" points="288.41 109.3 288.41 98.51 281.79 98.51 281.79 109.3 285.52 109.3"/><polyline class="cls-2" points="288.41 127.36 288.41 116.56 281.79 116.56 281.79 127.36 285.52 127.36"/><polygon class="cls-3" points="234.95 97.09 234.95 89.7 188.53 89.7 188.53 97.09 230.83 97.09 234.95 97.09"/><polygon class="cls-3" points="234.95 84.51 234.95 77.12 188.53 77.12 188.53 84.51 230.83 84.51 234.95 84.51"/><polyline class="cls-2" points="125.26 113.91 125.26 89.62 116.99 89.62 116.99 113.91 122.31 113.91"/><polyline class="cls-2" points="138.98 113.91 138.98 89.62 130.71 89.62 130.71 113.91 136.03 113.91"/><polygon class="cls-2" points="363.05 128.04 363.05 132.48 336.12 132.48 336.12 128.04 341.71 125.09 357.46 125.09 363.05 128.04"/><line class="cls-4" x1="343.98" y1="148.56" x2="349.58" y2="148.56"/><polyline class="cls-4" points="234.08 54.97 234.08 31 272.78 31 272.78 50.66 295.12 50.66 295.12 78.93"/><polyline class="cls-4" points="173.26 44.05 200.6 44.05 200.6 55.63"/><polyline class="cls-2" points="235.08 60.21 240.81 60.21 230.81 52.51 192.68 52.51 182.68 60.21 228.44 60.21"/><polyline class="cls-2" points="425.91 97.1 429.48 97.1 439.48 111.65 325.15 111.65 335.15 97.1 346.79 97.1 352.39 97.1 418.57 97.1"/><polyline class="cls-4" points="182.68 60.21 182.68 148.56 218.53 148.56"/><polyline class="cls-4" points="272.78 148.56 245.76 148.46 245.76 130.97 240.81 130.7 240.81 60.33"/><circle class="cls-2" cx="245.76" cy="133.15" r="6.88"/><line class="cls-4" x1="245.76" y1="136.5" x2="251.55" y2="130.7"/><line class="cls-4" x1="245.76" y1="140.03" x2="245.76" y2="130.26"/><line class="cls-4" x1="325.14" y1="148.56" x2="306.14" y2="148.56"/><circle class="cls-3" cx="143.82" cy="133.15" r="6.88"/><line class="cls-4" x1="143.82" y1="136.5" x2="138.02" y2="130.7"/><line class="cls-4" x1="143.82" y1="148.46" x2="143.82" y2="130.97"/><line class="cls-2" x1="148.37" y1="120" x2="138.98" y2="120"/><polyline class="cls-4" points="330.71 53.72 396.08 53.72 396.08 96.51"/><polyline class="cls-2" points="377.71 70.36 377.71 59.57 371.09 59.57 371.09 70.36 377.71 70.36"/><polyline class="cls-2" points="390.21 70.36 390.21 59.57 383.59 59.57 383.59 70.36 390.21 70.36"/><line class="cls-4" x1="285.87" y1="28.14" x2="323.18" y2="28.14"/><polyline class="cls-4" points="56.27 132.41 56.27 54.7 95.99 54.7 95.99 148.46 66.5 148.46"/><line class="cls-4" x1="56.27" y1="61.65" x2="90.22" y2="61.65"/><path class="cls-3" d="M68.43,132.49c0-3.8-4-14.82-6.76-14.84-3.37,0-7,10.93-7,14.73a6.88,6.88,0,1,0,13.76.11Z"/><line class="cls-4" x1="61.42" y1="148.75" x2="61.58" y2="129.19"/><line class="cls-4" x1="61.52" y1="135.79" x2="58.18" y2="132.41"/><polyline class="cls-3" points="1.3 89.11 1.3 148.46 49.43 148.46 49.43 89.23"/><polyline class="cls-4" points="15.15 76.34 15.15 34.49 65.48 34.49 65.48 54.67"/><rect class="cls-2" x="6.65" y="99.95" width="36.97" height="7.39"/><rect class="cls-2" x="6.65" y="114.23" width="36.97" height="7.39"/><polyline class="cls-3" points="43.71 89.11 49.43 89.11 39.43 81.41 11.3 81.41 1.3 89.11 37.06 89.11"/><polyline class="cls-2" points="90.22 78.21 90.22 67.42 83.61 67.42 83.61 78.21 87.34 78.21"/><polyline class="cls-2" points="77.76 78.21 77.76 67.42 71.14 67.42 71.14 78.21 74.87 78.21"/><polyline class="cls-2" points="90.32 94.87 90.32 84.08 83.7 84.08 83.7 94.87 87.43 94.87"/><polyline class="cls-2" points="31.26 65.91 31.26 41.62 22.99 41.62 22.99 65.91 28.31 65.91"/><polygon class="cls-1" points="675.32 88.99 706.02 88.99 713.49 96.54 710.29 96.54 710.25 118.34 688.87 118.34 688.47 97.54 675.32 88.99"/><path class="cls-3" d="M772.67,136.55c0-4.39,4.63-17.13,7.81-17.16,3.89,0,8,12.63,8.08,17a7.95,7.95,0,1,1-15.89.14Z"/><polyline class="cls-4" points="780.53 148.46 780.67 133.4 780.7 129.9"/><polyline class="cls-4" points="653.23 123.02 653.23 148.57 635.91 148.57"/><line class="cls-4" x1="558.18" y1="148.57" x2="558.18" y2="123.02"/><polyline class="cls-4" points="598.71 148.57 598.71 131.81 587.8 131.81 587.8 142.14"/><line class="cls-4" x1="824.01" y1="127.71" x2="824.01" y2="148.5"/><line class="cls-4" x1="792.66" y1="148.5" x2="792.66" y2="127.71"/><polyline class="cls-4" points="805 133.3 814.78 133.3 814.78 143.04"/><polyline class="cls-4" points="810.73 143.04 801.89 143.04 801.89 133.3"/><polygon class="cls-3" points="798.76 127.71 791.45 127.71 791.45 113.71 825.78 113.71 825.78 127.71 818.47 127.71 798.76 127.71"/><line class="cls-4" x1="808.34" y1="133.3" x2="808.34" y2="143.04"/><line class="cls-4" x1="802.63" y1="138.17" x2="814.78" y2="138.17"/><polyline class="cls-3" points="801.26 118.34 801.26 109.66 796.25 109.66 796.25 122.28 801.26 122.28"/><polyline class="cls-4" points="653.23 113.47 653.23 97.54 670.85 86.08 688.47 97.54 688.47 146.57"/><polyline class="cls-4" points="743.64 100.67 743.64 148.57 722.35 148.57"/><polyline class="cls-2" points="684.48 148.57 684.48 122.24 714.11 122.24 714.11 148.57"/><polyline class="cls-4" points="709.75 92.41 738.41 92.41 746.67 100.67 737.88 100.67"/><polyline class="cls-4" points="675.32 88.99 706.02 88.99 713.49 96.54 704.87 96.54"/><polyline class="cls-2" points="691.17 123.47 681.87 123.47 688.5 118.34 710.52 118.34 717.18 123.47 707.42 123.47"/><circle class="cls-4" cx="547.17" cy="133.15" r="6.88"/><line class="cls-4" x1="547.17" y1="136.5" x2="541.37" y2="130.7"/><line class="cls-4" x1="547.17" y1="148.46" x2="547.17" y2="130.97"/><polygon class="cls-3" points="618.55 142.01 618.55 131.81 608.61 131.81 608.61 142.01 614.21 142.01 618.55 142.01"/><polygon class="cls-3" points="638.24 142.01 638.24 131.81 628.3 131.81 628.3 142.01 633.91 142.01 638.24 142.01"/><polygon class="cls-3" points="578.06 142.01 578.06 131.81 568.12 131.81 568.12 142.01 573.73 142.01 578.06 142.01"/><line class="cls-4" x1="710.29" y1="96.54" x2="710.29" y2="118.34"/><polyline class="cls-3" points="587.3 123.02 558.18 123.02 578.48 102.72 607.24 102.72"/><polyline class="cls-4" points="676.47 129.99 676.47 107.94 665.23 107.94 665.23 129.99 671.57 129.99"/><polyline class="cls-4" points="725.66 119.49 725.66 104.47 719.04 104.47 719.04 119.49 722.77 119.49"/><polyline class="cls-4" points="737.39 119.49 737.39 104.47 730.77 104.47 730.77 119.49 734.5 119.49"/><polyline class="cls-4" points="912.82 148.57 880.96 148.57 880.96 134.23"/><polyline class="cls-4" points="923.58 123.02 923.58 148.57 919.93 148.57"/><line class="cls-4" x1="923.58" y1="123.02" x2="902.33" y2="104.3"/><polygon class="cls-3" points="902.29 104.3 881.07 123.02 838.65 123.02 859.83 104.3 902.29 104.3"/><polyline class="cls-4" points="838.65 123.02 838.65 148.51 847.19 148.51"/><line class="cls-4" x1="902.33" y1="104.3" x2="902.29" y2="104.3"/><polygon class="cls-3" points="854.14 140.49 854.14 129.47 847.53 129.47 847.53 140.49 851.26 140.49 854.14 140.49"/><polygon class="cls-3" points="865.88 140.49 865.88 129.47 859.26 129.47 859.26 140.49 862.99 140.49 865.88 140.49"/><polyline class="cls-2" points="906.92 128.29 906.92 115.09 898.98 115.09 898.98 128.29 903.59 128.29"/><polyline class="cls-3" points="602.83 107.13 618.6 92.01 653.23 123.02 587.3 123.02"/><circle class="cls-4" cx="950.8" cy="135.15" r="6.88"/><line class="cls-4" x1="950.8" y1="138.5" x2="956.59" y2="132.7"/><line class="cls-4" x1="950.8" y1="148.46" x2="950.8" y2="132.97"/><path class="cls-3" d="M932.11,138.77c0-3.39,3.59-13.24,6-13.26,3,0,6.22,9.77,6.25,13.16a6.15,6.15,0,1,1-12.29.1Z"/><line class="cls-4" x1="938.39" y1="148.46" x2="938.23" y2="133.9"/><line class="cls-4" x1="938.29" y1="140.5" x2="935.84" y2="138.12"/><line class="cls-4" x1="780.91" y1="139.09" x2="784.28" y2="135.72"/><polyline class="cls-2" points="694.63 148.57 694.63 133.19 703.87 133.19 703.87 144.41"/></svg>