<svg id="Vector" xmlns="http://www.w3.org/2000/svg" viewBox="0 0 61.65 25.25"><defs><style>.cls-1{fill:#fff;}.cls-1,.cls-2,.cls-3,.cls-4{stroke:#4d4e53;stroke-linecap:round;stroke-linejoin:round;}.cls-2{fill:#da291c;}.cls-3{fill:none;}.cls-4{fill:#f0f1f2;}</style></defs><title>Final_Illustration</title><path class="cls-1" d="M53.1,9.14h3.15c1.73,0,3.3.95,3.3,3L59.9,16h1.25v3.66H.5V16.44H1.58C1.58,2.61,3.73.5,3.73.5H44.92c4,2.33,8.18,8.64,8.18,8.64"/><path class="cls-2" d="M1.87,8.28S33.32,7.48,50.32,15l-.94,4.71C23.17,10,1.69,11.35,1.69,11.35Z"/><line class="cls-3" x1="1.58" y1="16.44" x2="5.67" y2="16.44"/><line class="cls-3" x1="38.48" y1="9.14" x2="49.09" y2="9.14"/><line class="cls-3" x1="34.98" y1="0.5" x2="34.98" y2="9.14"/><circle class="cls-4" cx="13.83" cy="19.64" r="5.11"/><circle class="cls-4" cx="49.09" cy="19.64" r="5.11"/></svg>